<?xml version="1.0" encoding="utf-8"?>
<!-- Generator: Adobe Illustrator 22.0.1, SVG Export Plug-In . SVG Version: 6.00 Build 0)  -->
<svg version="1.1" id="Layer_2" xmlns="http://www.w3.org/2000/svg" xmlns:xlink="http://www.w3.org/1999/xlink" x="0px" y="0px"
	 viewBox="0 0 16 16" style="enable-background:new 0 0 16 16;" xml:space="preserve">
<style type="text/css">
	.st0{fill:#4B4B4B;}
</style>
<g>
	<path d="M-928-1367.2c-253.1,0-458.2,205.2-458.2,458.2s205.2,458.2,458.2,458.2S-469.8-655.9-469.8-909S-674.9-1367.2-928-1367.2z
		 M-1217-800.9v-74l207-78l-207-74v-73l296,112v69L-1217-800.9z M-636-716.9h-285v-58h285V-716.9z"/>
	<path class="st0" d="M-928-430.8c-64.6,0-127.2-12.6-186.2-37.6c-57-24.1-108.1-58.6-152-102.5s-78.4-95.1-102.5-152
		c-24.9-59-37.6-121.6-37.6-186.2s12.6-127.2,37.6-186.2c24.1-57,58.6-108.1,102.5-152s95.1-78.4,152-102.5
		c59-24.9,121.6-37.6,186.2-37.6s127.2,12.6,186.2,37.6c57,24.1,108.1,58.6,152,102.5s78.4,95.1,102.5,152
		c24.9,59,37.6,121.6,37.6,186.2c0,64.6-12.6,127.2-37.6,186.2c-24.1,57-58.6,108.1-102.5,152s-95.1,78.4-152,102.5
		C-800.8-443.4-863.4-430.8-928-430.8z M-928-1347.2c-59.2,0-116.6,11.6-170.6,34.4c-52.2,22.1-99.1,53.7-139.3,93.9
		c-40.3,40.3-71.9,87.1-93.9,139.3c-22.8,54-34.4,111.4-34.4,170.6c0,59.2,11.6,116.6,34.4,170.6c22.1,52.2,53.7,99.1,93.9,139.3
		c40.3,40.3,87.1,71.9,139.3,93.9c54,22.8,111.4,34.4,170.6,34.4c59.2,0,116.6-11.6,170.6-34.4c52.2-22.1,99.1-53.7,139.3-93.9
		c40.3-40.3,71.9-87.1,93.9-139.3c22.8-54,34.4-111.4,34.4-170.6c0-59.2-11.6-116.6-34.4-170.6c-22.1-52.2-53.7-99.1-93.9-139.3
		c-40.3-40.3-87.1-71.9-139.3-93.9C-811.4-1335.7-868.8-1347.2-928-1347.2z"/>
</g>
<g>
	<path d="M8,0.7C4,0.7,0.7,4,0.7,8S4,15.3,8,15.3s7.3-3.3,7.3-7.3S12.1,0.7,8,0.7z M3.4,9.8V8.6l3.3-1.2L3.4,6.1V5l4.7,1.8v1.1
		L3.4,9.8z M12.7,11.1H8.1v-0.9h4.6V11.1z"/>
	<path class="st0" d="M8,15.7c-1,0-2-0.2-3-0.6c-0.9-0.4-1.7-0.9-2.4-1.6S1.4,11.9,1,11c-0.4-0.9-0.6-1.9-0.6-3s0.2-2,0.6-3
		c0.4-0.9,0.9-1.7,1.6-2.4S4.1,1.4,5,1C6,0.6,7,0.4,8,0.4s2,0.2,3,0.6c0.9,0.4,1.7,0.9,2.4,1.6c0.7,0.7,1.3,1.5,1.6,2.4
		C15.5,6,15.7,7,15.7,8c0,1-0.2,2-0.6,3c-0.4,0.9-0.9,1.7-1.6,2.4c-0.7,0.7-1.5,1.3-2.4,1.6C10.1,15.5,9.1,15.7,8,15.7z M8,1
		C7.1,1,6.2,1.2,5.3,1.6C4.5,1.9,3.7,2.4,3.1,3.1C2.4,3.7,1.9,4.5,1.6,5.3C1.2,6.2,1,7.1,1,8C1,9,1.2,9.9,1.6,10.8
		c0.4,0.8,0.9,1.6,1.5,2.2c0.6,0.6,1.4,1.1,2.2,1.5C6.2,14.8,7.1,15,8,15c0.9,0,1.9-0.2,2.7-0.5c0.8-0.4,1.6-0.9,2.2-1.5
		c0.6-0.6,1.1-1.4,1.5-2.2C14.8,9.9,15,9,15,8c0-0.9-0.2-1.9-0.6-2.7c-0.4-0.8-0.9-1.6-1.5-2.2c-0.6-0.6-1.4-1.1-2.2-1.5
		C9.9,1.2,9,1,8,1z"/>
</g>
</svg>
